# xmcd CD database file
#
# Track frame offsets:
#	150
#	12877
#	28492
#	39692
#	57567
#	69140
#	81270
#	92405
#	114097
#	126760
#	141607
#	153592
#	163457
#
# Disc length: 2356 seconds
#
# Revision: 1
# Processed by: cddbd v1.5.2PL0 Copyright (c) Steve Scherf et al.
# Submitted via: CDex 1.51
#
DISCID=b409320d
DTITLE=Fenton Robinson - The Mellow Blues Genius
DYEAR=1988
DGENRE=Blues
TTITLE0=7-11 Blues
TTITLE1=I Put My Baby In High Society
TTITLE2=Farmer's Son
TTITLE3=One Room Country Shac
TTITLE4=You Don't Know What Love Is
TTITLE5=Let Me Rock You To Sleep
TTITLE6=Somebody Loan Me A Dime
TTITLE7=Nothing Buy A Fool
TTITLE8=Blue Monday Blues
TTITLE9=Keep On Groovin' Me Baby
TTITLE10=There Goes My Baby
TTITLE11=You're Cracking Me Up
TTITLE12=I Put My Baby In High Society (Original 45 Version)
EXTD=YEAR: 1988
EXTT0=
EXTT1=
EXTT2=
EXTT3=
EXTT4=
EXTT5=
EXTT6=
EXTT7=
EXTT8=
EXTT9=
EXTT10=
EXTT11=
EXTT12=
PLAYORDER=
